<svg xmlns="http://www.w3.org/2000/svg" width="100" height="100" viewBox="0 0 100 100" fill="none">
  <path d="M82.2419 32.0633C81.6226 31.2005 81.1279 30.2549 80.7723 29.2542C80.5665 28.1656 80.5157 27.0534 80.6214 25.9506C80.8791 24.0273 80.5849 22.0704 79.773 20.308C78.6417 18.7094 77.0781 17.4666 75.2655 16.7252C74.2728 16.2757 73.3491 15.6874 72.522 14.978C71.8131 14.1504 71.2249 13.2268 70.7748 12.2344C70.0336 10.4213 68.7907 8.85709 67.192 7.72531C65.4301 6.9153 63.4746 6.62164 61.5525 6.87844C60.4492 6.98419 59.3364 6.93338 58.2473 6.7275C57.2461 6.37255 56.2998 5.87809 55.4367 5.25875C53.8663 4.04134 51.9792 3.30072 50 3.125C48.0206 3.30039 46.1332 4.0408 44.5625 5.25813C43.6997 5.87712 42.7541 6.37156 41.7534 6.72688C40.6647 6.93111 39.5527 6.98191 38.4498 6.87781C36.5266 6.62066 34.5698 6.91488 32.8072 7.72625C31.2088 8.8578 29.9662 10.4216 29.2252 12.2344C28.7757 13.227 28.1874 14.1507 27.478 14.9778C26.6505 15.6868 25.7268 16.2751 24.7344 16.7252C22.9213 17.4664 21.3571 18.7092 20.2253 20.308C19.4154 22.0699 19.1218 24.0254 19.3784 25.9475C19.4842 27.0508 19.4334 28.1636 19.2275 29.2527C18.8723 30.254 18.3776 31.2002 17.758 32.0633C16.5408 33.6338 15.8005 35.5208 15.625 37.5C15.8004 39.4794 16.5408 41.3668 17.7581 42.9375C18.3774 43.8002 18.8721 44.7459 19.2277 45.7466C19.4335 46.8351 19.4843 47.9473 19.3786 49.0502C19.1209 50.9734 19.4151 52.9304 20.227 54.6928C21.3583 56.2914 22.9219 57.5342 24.7345 58.2756C25.7272 58.7251 26.6509 59.3134 27.478 60.0228C28.1868 60.8501 28.775 61.7735 29.2252 62.7656C29.666 63.6575 30.1733 64.5149 30.743 65.3306L21.9695 89.435C21.869 89.7116 21.8486 90.011 21.9107 90.2986C21.9728 90.5863 22.1149 90.8506 22.3207 91.061C22.5264 91.2715 22.7874 91.4196 23.0735 91.4882C23.3597 91.5569 23.6595 91.5433 23.9383 91.4491L32.2314 88.6477L36.7847 96.1259C36.9242 96.355 37.1203 96.5443 37.3541 96.6756C37.588 96.807 37.8517 96.876 38.1198 96.8759C38.1702 96.8759 38.222 96.8728 38.2739 96.8683C38.5669 96.8393 38.8457 96.7281 39.0781 96.5475C39.3106 96.3669 39.4872 96.1242 39.5877 95.8475L48.3948 71.6536C49.4446 71.9501 50.556 71.9501 51.6058 71.6536L60.413 95.8475C60.5134 96.1242 60.6901 96.3669 60.9225 96.5475C61.155 96.7281 61.4338 96.8393 61.7267 96.8683C61.7786 96.8728 61.8305 96.8759 61.8808 96.8759C62.149 96.876 62.4127 96.807 62.6465 96.6756C62.8803 96.5443 63.0764 96.355 63.2159 96.1259L67.7692 88.6477L76.0625 91.4489C76.3413 91.5431 76.6411 91.5567 76.9272 91.4881C77.2134 91.4194 77.4744 91.2713 77.6801 91.0609C77.8858 90.8504 78.0279 90.5861 78.0901 90.2985C78.1522 90.0108 78.1318 89.7114 78.0312 89.4348L69.2572 65.3294C69.8264 64.5138 70.3337 63.6568 70.7748 62.7655C71.2243 61.7728 71.8126 60.8491 72.522 60.022C73.3496 59.3131 74.2732 58.7249 75.2656 58.2748C77.0787 57.5336 78.6429 56.2907 79.7747 54.692C80.5846 52.9301 80.8782 50.9746 80.6216 49.0525C80.5158 47.9492 80.5666 46.8364 80.7725 45.7473C81.1277 44.746 81.6224 43.7998 82.242 42.9367C83.4592 41.3662 84.1995 39.4792 84.375 37.5C84.1995 35.5208 83.4591 33.6338 82.2419 32.0633ZM37.7639 91.7236L34.2514 85.9542C34.0667 85.6511 33.7842 85.4199 33.4506 85.2987C33.1169 85.1776 32.752 85.1736 32.4158 85.2875L26.0178 87.4481L33.2763 67.5048C34.9283 68.1119 36.6997 68.3231 38.4481 68.1214C39.5515 68.0165 40.6641 68.0673 41.7533 68.2723C42.7546 68.6275 43.7008 69.1223 44.5639 69.7419C44.8809 69.9436 45.2091 70.1497 45.5441 70.3512L37.7639 91.7236ZM67.5842 85.2875C67.248 85.1736 66.8831 85.1776 66.5494 85.2987C66.2158 85.4199 65.9333 85.6511 65.7486 85.9542L62.2361 91.7236L54.4566 70.352C54.7916 70.1489 55.1197 69.9436 55.4367 69.7419C56.2995 69.1226 57.2451 68.6279 58.2458 68.2723C59.3344 68.0673 60.4466 68.0164 61.5494 68.1214C63.2988 68.324 65.0713 68.1123 66.7238 67.5034L73.9822 87.4481L67.5842 85.2875ZM79.6052 41.2583C78.8051 42.3847 78.181 43.6261 77.7542 44.9402C77.456 46.3317 77.3696 47.7602 77.4978 49.1775C77.6953 50.5094 77.5476 51.8696 77.0691 53.1281C76.2093 54.1874 75.0902 55.0064 73.8205 55.5053C72.5408 56.0918 71.3579 56.8698 70.3125 57.8125C69.3688 58.8574 68.5902 60.0404 68.0039 61.3205C67.5049 62.5902 66.6859 63.7094 65.6266 64.5691C64.3678 65.0465 63.0079 65.1941 61.6761 64.9978C60.2587 64.8704 58.8303 64.9568 57.4386 65.2542C56.1252 65.6813 54.8843 66.3054 53.7583 67.1052C52.6714 67.9734 51.3753 68.5406 50 68.75C48.6247 68.5406 47.3286 67.9734 46.2417 67.1052C45.1153 66.3051 43.8739 65.681 42.5598 65.2542C41.683 65.0385 40.7817 64.9387 39.8789 64.9573C39.357 64.9573 38.8367 64.9786 38.3225 64.9984C36.9906 65.1951 35.6306 65.0475 34.3719 64.5697C33.3126 63.71 32.4937 62.5909 31.9947 61.3211C31.4083 60.0412 30.6303 58.8581 29.6875 57.8125C28.6426 56.8688 27.4596 56.0902 26.1795 55.5039C24.9098 55.0049 23.7906 54.1859 22.9309 53.1266C22.4525 51.8681 22.3049 50.5079 22.5022 49.1761C22.6304 47.7587 22.5439 46.3302 22.2458 44.9386C21.8187 43.6252 21.1946 42.3843 20.3948 41.2583C19.5266 40.1714 18.9594 38.8753 18.75 37.5C18.9594 36.1247 19.5266 34.8286 20.3948 33.7417C21.1949 32.6153 21.819 31.3739 22.2458 30.0598C22.544 28.6683 22.6304 27.2398 22.5022 25.8225C22.3047 24.4906 22.4524 23.1304 22.9309 21.8719C23.7907 20.8126 24.9098 19.9936 26.1795 19.4947C27.4592 18.9082 28.6421 18.1302 29.6875 17.1875C30.6312 16.1426 31.4098 14.9596 31.9961 13.6795C32.4951 12.4098 33.3141 11.2906 34.3734 10.4309C35.632 9.95275 36.9921 9.80514 38.3239 10.0022C39.7413 10.1296 41.1697 10.0431 42.5614 9.74578C43.8748 9.31866 45.1157 8.69457 46.2417 7.89484C47.3286 7.02661 48.6247 6.45937 50 6.25C51.3753 6.45937 52.6714 7.02661 53.7583 7.89484C54.8847 8.69489 56.1261 9.319 57.4402 9.74578C58.8318 10.0431 60.2602 10.1296 61.6775 10.0022C63.0094 9.80482 64.3696 9.95245 65.6281 10.4309C66.6874 11.2907 67.5064 12.4098 68.0053 13.6795C68.5918 14.9592 69.3698 16.1421 70.3125 17.1875C71.3574 18.1312 72.5404 18.9098 73.8205 19.4961C75.0902 19.9951 76.2094 20.8141 77.0691 21.8734C77.5475 23.1319 77.6951 24.4921 77.4978 25.8239C77.3696 27.2413 77.4561 28.6698 77.7542 30.0614C78.1813 31.3748 78.8054 32.6157 79.6052 33.7417C80.4734 34.8286 81.0406 36.1247 81.25 37.5C81.0406 38.8753 80.4734 40.1714 79.6052 41.2583Z" fill="#755F4A"/>
  <path d="M50 12.5C45.0555 12.5 40.222 13.9662 36.1108 16.7133C31.9995 19.4603 28.7952 23.3648 26.903 27.9329C25.0108 32.5011 24.5157 37.5277 25.4804 42.3773C26.445 47.2268 28.826 51.6814 32.3223 55.1777C35.8187 58.674 40.2732 61.055 45.1228 62.0196C49.9723 62.9843 54.9989 62.4892 59.5671 60.597C64.1353 58.7048 68.0397 55.5005 70.7868 51.3893C73.5338 47.278 75 42.4445 75 37.5C74.9924 30.8719 72.3561 24.5175 67.6693 19.8307C62.9826 15.1439 56.6281 12.5076 50 12.5ZM50 59.375C45.6735 59.375 41.4442 58.0921 37.8469 55.6884C34.2496 53.2847 31.4458 49.8683 29.7901 45.8712C28.1345 41.8741 27.7013 37.4757 28.5453 33.2324C29.3894 28.9891 31.4728 25.0913 34.5321 22.032C37.5913 18.9728 41.4891 16.8894 45.7324 16.0453C49.9757 15.2013 54.3741 15.6345 58.3712 17.2901C62.3683 18.9458 65.7848 21.7496 68.1884 25.3469C70.5921 28.9442 71.875 33.1735 71.875 37.5C71.8685 43.2996 69.5617 48.8598 65.4608 52.9607C61.3598 57.0617 55.7996 59.3685 50 59.375Z" fill="#755F4A"/>
  <path d="M55.6061 29.7041L51.4008 21.1837C51.2573 20.9397 51.0526 20.7374 50.8069 20.5968C50.5612 20.4563 50.283 20.3823 50 20.3823C49.7169 20.3823 49.4388 20.4563 49.1931 20.5968C48.9474 20.7374 48.7427 20.9397 48.5992 21.1837L44.3939 29.7041L34.99 31.0713C34.7016 31.1132 34.4307 31.235 34.2078 31.4228C33.985 31.6106 33.8191 31.857 33.729 32.1342C33.6388 32.4113 33.628 32.7081 33.6977 32.9911C33.7673 33.2741 33.9148 33.5319 34.1233 33.7355L40.9286 40.3685L39.3219 49.736C39.2727 50.0233 39.3049 50.3187 39.4148 50.5887C39.5248 50.8587 39.708 51.0926 39.9439 51.2639C40.1798 51.4352 40.459 51.5371 40.7497 51.558C41.0405 51.5789 41.3314 51.5181 41.5894 51.3824L50 46.9604L58.4106 51.3822C58.6686 51.518 58.9595 51.5788 59.2502 51.5578C59.541 51.5369 59.8201 51.435 60.056 51.2637C60.2919 51.0925 60.4752 50.8586 60.5852 50.5886C60.6951 50.3186 60.7273 50.0232 60.6781 49.7358L59.0714 40.3683L65.8767 33.7354C66.0852 33.5318 66.2327 33.2739 66.3023 32.9909C66.372 32.708 66.3612 32.4111 66.271 32.134C66.1808 31.8569 66.015 31.6105 65.7921 31.4227C65.5693 31.2348 65.2984 31.1131 65.01 31.0712L55.6061 29.7041ZM56.3019 38.7054C56.1207 38.8822 55.9852 39.1004 55.9071 39.3412C55.8289 39.582 55.8105 39.8382 55.8533 40.0877L57.0633 47.1435L50.7278 43.8124C50.5034 43.6942 50.2536 43.6324 50 43.6324C49.7464 43.6324 49.4966 43.6942 49.2722 43.8124L42.9375 47.1435L44.1475 40.0877C44.1903 39.8382 44.1718 39.582 44.0937 39.3412C44.0156 39.1004 43.8801 38.8822 43.6989 38.7054L38.5719 33.708L45.6566 32.6782C45.9073 32.642 46.1455 32.5452 46.3505 32.3964C46.5555 32.2475 46.7211 32.0509 46.8331 31.8237L50 25.4062L53.1677 31.824C53.2797 32.0512 53.4453 32.2478 53.6503 32.3967C53.8553 32.5456 54.0935 32.6423 54.3442 32.6785L61.4289 33.7083L56.3019 38.7054Z" fill="#DAC0A7"/>
</svg>