<svg xmlns="http://www.w3.org/2000/svg" width="100" height="100" viewBox="0 0 100 100" fill="none">
  <path d="M60 79.6875H10.9375C10.5231 79.6875 10.1257 79.5229 9.83265 79.2299C9.53962 78.9368 9.375 78.5394 9.375 78.125V28.125C9.375 27.7106 9.53962 27.3132 9.83265 27.0201C10.1257 26.7271 10.5231 26.5625 10.9375 26.5625H75C75.4144 26.5625 75.8118 26.7271 76.1049 27.0201C76.3979 27.3132 76.5625 27.7106 76.5625 28.125V55.375C76.5783 55.7197 76.4795 56.0598 76.2817 56.3425C76.0838 56.6251 75.798 56.8344 75.4688 56.9375C72.9711 57.707 70.2922 57.6523 67.8281 56.7812C67.5155 56.6795 67.1973 56.596 66.875 56.5312C66.0119 56.2878 65.1137 56.1927 64.2187 56.25C63.3081 56.3202 62.4157 56.542 61.5781 56.9062C60.1151 57.5298 58.8477 58.537 57.9098 59.8214C56.972 61.1058 56.3985 62.6197 56.25 64.2031C56.0357 66.4929 56.7381 68.7742 58.2031 70.5469C59.8175 72.5929 60.9257 74.9914 61.4375 77.5469V77.875C61.4732 78.0994 61.4596 78.3289 61.3975 78.5475C61.3354 78.7661 61.2265 78.9685 61.0781 79.1406C60.9438 79.2988 60.7792 79.4287 60.5941 79.5225C60.409 79.6164 60.207 79.6725 60 79.6875ZM12.5 76.5625H57.9844C57.5243 75.0988 56.7987 73.7322 55.8438 72.5312C54.67 71.112 53.8434 69.4387 53.4296 67.6441C53.0159 65.8495 53.0263 63.9831 53.4601 62.1932C53.8939 60.4033 54.7392 58.7393 55.9287 57.3333C57.1182 55.9273 58.6192 54.8181 60.3125 54.0937C61.4636 53.5702 62.6941 53.2427 63.9531 53.125C65.1566 53.0091 66.371 53.0936 67.5469 53.375C67.9855 53.4641 68.4185 53.5789 68.8438 53.7188C70.3157 54.2428 71.8982 54.3774 73.4375 54.1094V29.6875H12.5V76.5625Z" fill="#755F4B"/>
  <path d="M75 29.6875H10.9375C10.5231 29.6875 10.1257 29.5229 9.83265 29.2299C9.53962 28.9368 9.375 28.5394 9.375 28.125V15.625C9.375 15.2106 9.53962 14.8132 9.83265 14.5201C10.1257 14.2271 10.5231 14.0625 10.9375 14.0625H75C75.4144 14.0625 75.8118 14.2271 76.1049 14.5201C76.3979 14.8132 76.5625 15.2106 76.5625 15.625V28.125C76.5625 28.5394 76.3979 28.9368 76.1049 29.2299C75.8118 29.5229 75.4144 29.6875 75 29.6875ZM12.5 26.5625H73.4375V17.1875H12.5V26.5625Z" fill="#755F4B"/>
  <path d="M20.3125 21.875C19.8981 21.875 19.5007 21.7104 19.2076 21.4174C18.9146 21.1243 18.75 20.7269 18.75 20.3125V10.9375C18.75 10.5231 18.9146 10.1257 19.2076 9.83265C19.5007 9.53962 19.8981 9.375 20.3125 9.375C20.7269 9.375 21.1243 9.53962 21.4174 9.83265C21.7104 10.1257 21.875 10.5231 21.875 10.9375V20.3125C21.875 20.7269 21.7104 21.1243 21.4174 21.4174C21.1243 21.7104 20.7269 21.875 20.3125 21.875Z" fill="#755F4B"/>
  <path d="M29.6875 21.875C29.2731 21.875 28.8757 21.7104 28.5826 21.4174C28.2896 21.1243 28.125 20.7269 28.125 20.3125V10.9375C28.125 10.5231 28.2896 10.1257 28.5826 9.83265C28.8757 9.53962 29.2731 9.375 29.6875 9.375C30.1019 9.375 30.4993 9.53962 30.7924 9.83265C31.0854 10.1257 31.25 10.5231 31.25 10.9375V20.3125C31.25 20.7269 31.0854 21.1243 30.7924 21.4174C30.4993 21.7104 30.1019 21.875 29.6875 21.875Z" fill="#755F4B"/>
  <path d="M56.25 21.875C55.8356 21.875 55.4382 21.7104 55.1451 21.4174C54.8521 21.1243 54.6875 20.7269 54.6875 20.3125V10.9375C54.6875 10.5231 54.8521 10.1257 55.1451 9.83265C55.4382 9.53962 55.8356 9.375 56.25 9.375C56.6644 9.375 57.0618 9.53962 57.3549 9.83265C57.6479 10.1257 57.8125 10.5231 57.8125 10.9375V20.3125C57.8125 20.7269 57.6479 21.1243 57.3549 21.4174C57.0618 21.7104 56.6644 21.875 56.25 21.875Z" fill="#755F4B"/>
  <path d="M65.625 21.875C65.2106 21.875 64.8132 21.7104 64.5201 21.4174C64.2271 21.1243 64.0625 20.7269 64.0625 20.3125V10.9375C64.0625 10.5231 64.2271 10.1257 64.5201 9.83265C64.8132 9.53962 65.2106 9.375 65.625 9.375C66.0394 9.375 66.4368 9.53962 66.7299 9.83265C67.0229 10.1257 67.1875 10.5231 67.1875 10.9375V20.3125C67.1875 20.7269 67.0229 21.1243 66.7299 21.4174C66.4368 21.7104 66.0394 21.875 65.625 21.875Z" fill="#755F4B"/>
  <path d="M39.0625 43.75H32.8125C32.3981 43.75 32.0007 43.5854 31.7076 43.2924C31.4146 42.9993 31.25 42.6019 31.25 42.1875V35.9375C31.25 35.5231 31.4146 35.1257 31.7076 34.8326C32.0007 34.5396 32.3981 34.375 32.8125 34.375H39.0625C39.4769 34.375 39.8743 34.5396 40.1674 34.8326C40.4604 35.1257 40.625 35.5231 40.625 35.9375V42.1875C40.625 42.6019 40.4604 42.9993 40.1674 43.2924C39.8743 43.5854 39.4769 43.75 39.0625 43.75ZM34.375 40.625H37.5V37.5H34.375V40.625Z" fill="#755F4B"/>
  <path d="M53.125 43.75H46.875C46.4606 43.75 46.0632 43.5854 45.7701 43.2924C45.4771 42.9993 45.3125 42.6019 45.3125 42.1875V35.9375C45.3125 35.5231 45.4771 35.1257 45.7701 34.8326C46.0632 34.5396 46.4606 34.375 46.875 34.375H53.125C53.5394 34.375 53.9368 34.5396 54.2299 34.8326C54.5229 35.1257 54.6875 35.5231 54.6875 35.9375V42.1875C54.6875 42.6019 54.5229 42.9993 54.2299 43.2924C53.9368 43.5854 53.5394 43.75 53.125 43.75ZM48.4375 40.625H51.5625V37.5H48.4375V40.625Z" fill="#755F4B"/>
  <path d="M67.1875 43.75H60.9375C60.5231 43.75 60.1257 43.5854 59.8326 43.2924C59.5396 42.9993 59.375 42.6019 59.375 42.1875V35.9375C59.375 35.5231 59.5396 35.1257 59.8326 34.8326C60.1257 34.5396 60.5231 34.375 60.9375 34.375H67.1875C67.6019 34.375 67.9993 34.5396 68.2924 34.8326C68.5854 35.1257 68.75 35.5231 68.75 35.9375V42.1875C68.75 42.6019 68.5854 42.9993 68.2924 43.2924C67.9993 43.5854 67.6019 43.75 67.1875 43.75ZM62.5 40.625H65.625V37.5H62.5V40.625Z" fill="#755F4B"/>
  <path d="M25 57.8125H18.75C18.3356 57.8125 17.9382 57.6479 17.6451 57.3549C17.3521 57.0618 17.1875 56.6644 17.1875 56.25V50C17.1875 49.5856 17.3521 49.1882 17.6451 48.8951C17.9382 48.6021 18.3356 48.4375 18.75 48.4375H25C25.4144 48.4375 25.8118 48.6021 26.1049 48.8951C26.3979 49.1882 26.5625 49.5856 26.5625 50V56.25C26.5625 56.6644 26.3979 57.0618 26.1049 57.3549C25.8118 57.6479 25.4144 57.8125 25 57.8125ZM20.3125 54.6875H23.4375V51.5625H20.3125V54.6875Z" fill="#755F4B"/>
  <path d="M39.0625 57.8125H32.8125C32.3981 57.8125 32.0007 57.6479 31.7076 57.3549C31.4146 57.0618 31.25 56.6644 31.25 56.25V50C31.25 49.5856 31.4146 49.1882 31.7076 48.8951C32.0007 48.6021 32.3981 48.4375 32.8125 48.4375H39.0625C39.4769 48.4375 39.8743 48.6021 40.1674 48.8951C40.4604 49.1882 40.625 49.5856 40.625 50V56.25C40.625 56.6644 40.4604 57.0618 40.1674 57.3549C39.8743 57.6479 39.4769 57.8125 39.0625 57.8125ZM34.375 54.6875H37.5V51.5625H34.375V54.6875Z" fill="#755F4B"/>
  <path d="M53.125 57.8125H46.875C46.4606 57.8125 46.0632 57.6479 45.7701 57.3549C45.4771 57.0618 45.3125 56.6644 45.3125 56.25V50C45.3125 49.5856 45.4771 49.1882 45.7701 48.8951C46.0632 48.6021 46.4606 48.4375 46.875 48.4375H53.125C53.5394 48.4375 53.9368 48.6021 54.2299 48.8951C54.5229 49.1882 54.6875 49.5856 54.6875 50V56.25C54.6875 56.6644 54.5229 57.0618 54.2299 57.3549C53.9368 57.6479 53.5394 57.8125 53.125 57.8125ZM48.4375 54.6875H51.5625V51.5625H48.4375V54.6875Z" fill="#755F4B"/>
  <path d="M25 71.875H18.75C18.3356 71.875 17.9382 71.7104 17.6451 71.4174C17.3521 71.1243 17.1875 70.7269 17.1875 70.3125V64.0625C17.1875 63.6481 17.3521 63.2507 17.6451 62.9576C17.9382 62.6646 18.3356 62.5 18.75 62.5H25C25.4144 62.5 25.8118 62.6646 26.1049 62.9576C26.3979 63.2507 26.5625 63.6481 26.5625 64.0625V70.3125C26.5625 70.7269 26.3979 71.1243 26.1049 71.4174C25.8118 71.7104 25.4144 71.875 25 71.875ZM20.3125 68.75H23.4375V65.625H20.3125V68.75Z" fill="#755F4B"/>
  <path d="M39.0625 71.875H32.8125C32.3981 71.875 32.0007 71.7104 31.7076 71.4174C31.4146 71.1243 31.25 70.7269 31.25 70.3125V64.0625C31.25 63.6481 31.4146 63.2507 31.7076 62.9576C32.0007 62.6646 32.3981 62.5 32.8125 62.5H39.0625C39.4769 62.5 39.8743 62.6646 40.1674 62.9576C40.4604 63.2507 40.625 63.6481 40.625 64.0625V70.3125C40.625 70.7269 40.4604 71.1243 40.1674 71.4174C39.8743 71.7104 39.4769 71.875 39.0625 71.875ZM34.375 68.75H37.5V65.625H34.375V68.75Z" fill="#755F4B"/>
  <path d="M78.7031 90.6248C77.5825 90.6281 76.4934 90.2537 75.6117 89.562C74.7301 88.8702 74.1072 87.9015 73.8437 86.8123L72.375 80.7654C72.3469 80.6541 72.2825 80.5553 72.1919 80.4847C72.1014 80.4141 71.9898 80.3758 71.875 80.3758C71.7602 80.3758 71.6486 80.4141 71.5581 80.4847C71.4675 80.5553 71.4031 80.6541 71.375 80.7654L69.9063 86.8123C69.6368 87.8985 69.0161 88.8652 68.1406 89.5623C67.4708 90.0882 66.6778 90.4343 65.8367 90.5678C64.9956 90.7012 64.1344 90.6177 63.3347 90.325C62.535 90.0324 61.8232 89.5403 61.267 88.8955C60.7108 88.2506 60.3284 87.4744 60.1563 86.6404L59.5469 83.6717C59.2031 81.9529 58.8125 80.0936 58.4687 78.4529V78.2029C58.065 76.1366 57.182 74.1939 55.8906 72.5311C54.7169 71.1118 53.8903 69.4385 53.4765 67.6439C53.0627 65.8493 53.0732 63.9829 53.507 62.193C53.9408 60.4032 54.786 58.7391 55.9756 57.3331C57.1651 55.9271 58.6661 54.8179 60.3594 54.0936C61.4958 53.575 62.71 53.2477 63.9531 53.1248C65.1566 53.0089 66.371 53.0934 67.5469 53.3748C67.9855 53.4639 68.4186 53.5787 68.8438 53.7186C70.6772 54.3685 72.671 54.4123 74.5313 53.8436L74.7969 53.7498L75.5469 53.5154H75.7344C77.0647 53.1417 78.4512 53.0094 79.8281 53.1248C80.9964 53.2109 82.1423 53.4908 83.2187 53.9529C84.2172 54.335 85.1543 54.8615 86 55.5154C87.3112 56.5198 88.3993 57.7857 89.1955 59.2328C89.9916 60.6798 90.4784 62.2766 90.625 63.9217C90.9065 67.0365 89.9462 70.1365 87.9531 72.5467C87.1887 73.4868 86.5771 74.5414 86.1406 75.6717C85.8049 76.4889 85.5485 77.3366 85.375 78.2029C85.0156 79.9529 84.5938 81.9842 84.2031 83.8279C84 84.8904 83.8125 85.8279 83.6406 86.6561C83.5926 86.9126 83.5193 87.1639 83.4219 87.4061C83.0943 88.2336 82.5556 88.9609 81.8594 89.5154C80.9684 90.2413 79.8522 90.6336 78.7031 90.6248ZM71.875 77.2498C72.6907 77.2392 73.4855 77.5076 74.1278 78.0106C74.77 78.5136 75.2211 79.221 75.4062 80.0154L76.875 86.0623C76.9735 86.4727 77.2075 86.8379 77.5393 87.0987C77.871 87.3596 78.2811 87.5009 78.7031 87.4998C79.1247 87.5068 79.5348 87.3627 79.8594 87.0936C80.1221 86.8894 80.3268 86.6201 80.4531 86.3123C80.4531 86.3123 80.4531 86.1561 80.4531 86.0779C80.6406 85.2029 80.8281 84.2967 81.0156 83.3123C81.4219 81.3592 81.8438 79.3279 82.2031 77.5623C82.4085 76.4915 82.7227 75.4444 83.1406 74.4373C83.6933 73.0069 84.4685 71.6727 85.4375 70.4842C86.9259 68.7441 87.6672 66.4867 87.5 64.2029C87.3849 63.008 87.0261 61.8493 86.4456 60.7985C85.8651 59.7477 85.0753 58.8271 84.125 58.0936C83.5022 57.5947 82.8066 57.1942 82.0625 56.9061C81.2714 56.55 80.4265 56.3282 79.5625 56.2498C78.5566 56.1416 77.5394 56.221 76.5625 56.4842H76.3906L75.9531 56.6248H75.7969L75.3438 56.7654C72.8828 57.5073 70.249 57.4416 67.8281 56.5779C67.5155 56.4762 67.1973 56.3927 66.875 56.3279C66.0003 56.1525 65.1022 56.1261 64.2187 56.2498C63.3081 56.32 62.4157 56.5418 61.5781 56.9061C60.1151 57.5296 58.8477 58.5368 57.9098 59.8212C56.972 61.1056 56.3985 62.6195 56.25 64.2029C56.0357 66.4927 56.7381 68.774 58.2031 70.5467C59.8175 72.5927 60.9257 74.9912 61.4375 77.5467V77.8748C61.7656 79.4373 62.1406 81.3279 62.5 83.0467L63.1094 86.0154C63.1826 86.4489 63.4058 86.8428 63.7399 87.1284C64.0741 87.414 64.498 87.5731 64.9375 87.5779C65.3509 87.5805 65.753 87.4427 66.0781 87.1873C66.4167 86.9306 66.6588 86.5673 66.7656 86.1561L68.2344 80.0936C68.4073 79.2658 68.8678 78.526 69.5343 78.0054C70.2007 77.4849 71.03 77.2172 71.875 77.2498Z" fill="#DAC0A7"/>
  <path d="M71.875 62.8282C69.2497 62.7445 66.7003 61.9272 64.5156 60.4688C64.34 60.3526 64.1897 60.2021 64.0737 60.0264C63.9577 59.8506 63.8785 59.6533 63.8407 59.4461C63.8029 59.2389 63.8074 59.0263 63.8539 58.8209C63.9004 58.6155 63.9879 58.4217 64.1112 58.2509C64.2345 58.0802 64.391 57.9362 64.5713 57.8275C64.7517 57.7188 64.9521 57.6477 65.1607 57.6184C65.3692 57.5892 65.5815 57.6024 65.7848 57.6572C65.9881 57.712 66.1782 57.8074 66.3438 57.9376C67.9948 59.0137 69.9059 59.6237 71.875 59.7032C73.8442 59.6237 75.7552 59.0137 77.4063 57.9376C77.5718 57.8074 77.7619 57.712 77.9652 57.6572C78.1685 57.6024 78.3808 57.5892 78.5893 57.6184C78.7979 57.6477 78.9983 57.7188 79.1787 57.8275C79.359 57.9362 79.5156 58.0802 79.6388 58.2509C79.7621 58.4217 79.8496 58.6155 79.8961 58.8209C79.9426 59.0263 79.9471 59.2389 79.9093 59.4461C79.8715 59.6533 79.7923 59.8506 79.6763 60.0264C79.5603 60.2021 79.41 60.3526 79.2344 60.4688C77.0497 61.9272 74.5003 62.7445 71.875 62.8282Z" fill="#DAC0A7"/>
</svg>