<svg xmlns="http://www.w3.org/2000/svg" width="100" height="100" viewBox="0 0 100 100" fill="none">
  <path d="M34.375 96.8748H17.1875C16.9449 96.8748 16.7057 96.8183 16.4887 96.7098C16.2718 96.6013 16.083 96.4438 15.9375 96.2498C15.792 96.0557 15.6936 95.8305 15.6502 95.5918C15.6068 95.3531 15.6196 95.1077 15.6875 94.8748L16.3594 92.531C17.764 87.6118 20.4688 83.1623 24.1892 79.6509C27.9096 76.1395 32.5079 73.6961 37.5 72.5779C37.7899 72.5188 38.0907 72.5432 38.3673 72.6483C38.6439 72.7534 38.885 72.9349 39.0625 73.1717C39.2471 73.4159 39.3559 73.709 39.3754 74.0146C39.3948 74.3202 39.324 74.6247 39.1719 74.8904L34.9219 82.3279L38.3906 84.6404C38.7357 84.8671 38.977 85.2211 39.0619 85.6251C39.1468 86.0291 39.0684 86.4503 38.8438 86.7967L35.2031 92.3123L35.9375 94.906C36.0007 95.1378 36.0096 95.381 35.9635 95.6168C35.9175 95.8525 35.8177 96.0745 35.6719 96.2654C35.52 96.4631 35.323 96.6215 35.0974 96.7275C34.8718 96.8335 34.6241 96.884 34.375 96.8748ZM19.2656 93.7498H32.3281L31.9687 92.4529C31.9159 92.2391 31.9067 92.0169 31.9416 91.7994C31.9765 91.582 32.0548 91.3738 32.1719 91.1873L35.2969 86.3748L31.9062 84.1092C31.5745 83.8911 31.3382 83.5549 31.2453 83.169C31.1525 82.783 31.21 82.3761 31.4062 82.031L34.4219 76.7654C30.7955 78.1897 27.5461 80.4304 24.9258 83.3135C22.3055 86.1967 20.3847 89.6449 19.3125 93.3904L19.2656 93.7498Z" fill="#755F4B"/>
  <path d="M50 96.8747C49.6473 96.8867 49.3008 96.779 49.0171 96.5691C48.7334 96.3591 48.5291 96.0593 48.4375 95.7184L43.75 77.8903C43.6525 77.544 43.6775 77.1747 43.8207 76.8447C43.964 76.5147 44.2167 76.2442 44.5362 76.079C44.8557 75.9137 45.2225 75.8637 45.5746 75.9375C45.9267 76.0113 46.2425 76.2044 46.4688 76.484C46.9088 76.9933 47.4534 77.4018 48.0654 77.6819C48.6775 77.9619 49.3426 78.1068 50.0157 78.1068C50.6887 78.1068 51.3539 77.9619 51.9659 77.6819C52.5779 77.4018 53.1225 76.9933 53.5625 76.484C53.7902 76.2093 54.1049 76.0207 54.4546 75.9496C54.8042 75.8786 55.1676 75.9293 55.4844 76.0934C55.7972 76.2614 56.0434 76.5309 56.1826 76.8575C56.3218 77.1841 56.3455 77.5483 56.25 77.8903L51.5625 95.7184C51.471 96.0593 51.2667 96.3591 50.983 96.5691C50.6993 96.779 50.3528 96.8867 50 96.8747ZM47.7813 80.9372L50 89.2497L52.2188 80.9372C50.7675 81.3432 49.2326 81.3432 47.7813 80.9372Z" fill="#755F4B"/>
  <path d="M82.8125 96.8752H65.625C65.3864 96.8746 65.151 96.8194 64.9371 96.7138C64.7231 96.6082 64.5362 96.4549 64.3906 96.2658C64.2448 96.0749 64.145 95.8529 64.0989 95.6172C64.0529 95.3814 64.0618 95.1382 64.125 94.9065L64.8281 92.3127L61.1875 86.7971C60.9628 86.4507 60.8844 86.0295 60.9693 85.6255C61.0542 85.2215 61.2955 84.8675 61.6406 84.6408L65.1094 82.3283L60.9375 74.8908C60.7853 74.6251 60.7145 74.3206 60.734 74.015C60.7534 73.7095 60.8622 73.4163 61.0469 73.1721C61.2262 72.9381 61.4681 72.7597 61.7446 72.6574C62.0211 72.5551 62.3209 72.5331 62.6094 72.594C66.5327 73.4899 70.2226 75.2044 73.4375 77.6252C78.3995 81.336 81.9972 86.5816 83.6719 92.5471L84.375 94.8752C84.4429 95.1081 84.4557 95.3536 84.4123 95.5922C84.3689 95.8309 84.2705 96.0561 84.125 96.2502C83.9732 96.4529 83.7745 96.6158 83.5458 96.7246C83.3172 96.8335 83.0655 96.8852 82.8125 96.8752ZM67.6719 93.7502H80.7344L80.6406 93.4065C79.1469 88.0983 75.9453 83.4304 71.5312 80.1252C69.6903 78.7424 67.6723 77.6125 65.5312 76.7658L68.5469 82.0315C68.7431 82.3765 68.8006 82.7834 68.7078 83.1694C68.6149 83.5554 68.3786 83.8915 68.0469 84.1096L64.6562 86.3752L67.7812 91.1877C67.8983 91.3742 67.9766 91.5824 68.0115 91.7999C68.0464 92.0173 68.0372 92.2395 67.9844 92.4533L67.6719 93.7502Z" fill="#755F4B"/>
  <path d="M50 81.2501C48.8665 81.2486 47.7469 81.0005 46.7189 80.5229C45.6909 80.0453 44.7791 79.3498 44.0469 78.4845C43.9036 78.3098 43.7973 78.1078 43.7344 77.8908L42.1719 72.2814C42.1617 72.1458 42.1669 72.0095 42.1875 71.8751V63.1564C42.1875 62.9138 42.244 62.6746 42.3524 62.4576C42.4609 62.2407 42.6184 62.0519 42.8125 61.9064C43.0083 61.7584 43.2363 61.6587 43.4779 61.6152C43.7195 61.5718 43.968 61.5859 44.2031 61.6564C47.9856 62.7827 52.0143 62.7827 55.7968 61.6564C56.032 61.5859 56.2804 61.5718 56.522 61.6152C56.7636 61.6587 56.9916 61.7584 57.1875 61.9064C57.3815 62.0519 57.539 62.2407 57.6475 62.4576C57.756 62.6746 57.8125 62.9138 57.8125 63.1564V71.8751C57.8278 72.0101 57.8278 72.1464 57.8125 72.2814L56.25 77.8283C56.1988 78.0685 56.0918 78.2934 55.9375 78.4845C55.2069 79.3478 54.2977 80.0421 53.2726 80.5196C52.2474 80.9971 51.1309 81.2464 50 81.2501ZM46.6562 76.7189C47.5509 77.5847 48.7471 78.0688 49.9922 78.0688C51.2372 78.0688 52.4334 77.5847 53.3281 76.7189L54.6875 71.672V65.1564C51.5937 65.7814 48.4062 65.7814 45.3125 65.1564V71.672L46.6562 76.7189Z" fill="#755F4B"/>
  <path d="M32.8125 35.9375H25C24.5856 35.9375 24.1882 35.7729 23.8951 35.4799C23.6021 35.1868 23.4375 34.7894 23.4375 34.375V26.5625C23.4375 26.1481 23.6021 25.7507 23.8951 25.4576C24.1882 25.1646 24.5856 25 25 25H45.3125C45.6506 25 45.9795 25.1097 46.25 25.3125C46.9002 25.808 47.643 26.1684 48.4346 26.3723C49.2262 26.5763 50.0507 26.6197 50.8594 26.5C51.1979 26.4471 51.5443 26.5069 51.8455 26.6703C52.1466 26.8336 52.3858 27.0914 52.526 27.4039C52.6663 27.7165 52.7 28.0665 52.6219 28.4C52.5438 28.7336 52.3582 29.0322 52.0938 29.25C46.6009 33.5828 39.8085 35.9386 32.8125 35.9375ZM26.5625 32.8125H32.8125C37.7012 32.8104 42.505 31.5341 46.75 29.1094C46.067 28.8603 45.4164 28.5298 44.8125 28.125H26.5625V32.8125Z" fill="#755F4B"/>
  <path d="M75 35.9375C72.7427 35.9383 70.5073 35.4943 68.4215 34.6311C66.3357 33.7678 64.4404 32.5021 62.8438 30.9063C61.7907 29.8345 60.8724 28.6382 60.1094 27.3438C59.9723 27.1062 59.9001 26.8368 59.9001 26.5625C59.9001 26.2882 59.9723 26.0188 60.1094 25.7813C60.2471 25.5428 60.4453 25.345 60.684 25.2078C60.9227 25.0706 61.1935 24.9989 61.4688 25H75C75.4144 25 75.8119 25.1646 76.1049 25.4577C76.3979 25.7507 76.5625 26.1481 76.5625 26.5625V34.375C76.5625 34.7894 76.3979 35.1868 76.1049 35.4799C75.8119 35.7729 75.4144 35.9375 75 35.9375ZM64.5157 28.125C64.6875 28.3125 64.875 28.5156 65.0625 28.6875C67.0032 30.6478 69.4836 31.9859 72.1875 32.5313C72.5938 32.6094 73.0157 32.6719 73.4375 32.7188V28.125H64.5157Z" fill="#755F4B"/>
  <path d="M50 65.625C49.4375 65.625 48.8906 65.625 48.3438 65.625H48.1094C47.5781 65.625 47.0625 65.625 46.5469 65.4688C46.0313 65.3125 45.5 65.2969 44.9844 65.1875H44.875L43.5781 64.8438C42.9219 64.6563 42.2969 64.4531 41.7031 64.2188C41.4469 64.1363 41.1964 64.0371 40.9531 63.9219C40.3043 63.6135 39.6731 63.2692 39.0625 62.8906C34.0642 60.2677 30.1805 55.929 28.125 50.6719L27.9219 50.1563C27.8281 49.9063 27.75 49.6406 27.6719 49.3906V49.1875L27.5781 48.9063C27.4062 48.3594 27.2656 47.8125 27.1406 47.25C27.0156 46.6875 26.9219 46.1719 26.8438 45.5938C26.6613 44.4674 26.5673 43.3285 26.5625 42.1875V34.375C26.5625 33.9606 26.7271 33.5632 27.0201 33.2702C27.3132 32.9771 27.7106 32.8125 28.125 32.8125H32.8125C39.102 32.808 45.2085 30.6955 50.1562 26.8125C50.3725 26.6283 50.6394 26.5139 50.9219 26.4844C51.9518 26.3513 52.9278 25.9469 53.75 25.3125C54.0205 25.1097 54.3494 25 54.6875 25H61.4688C61.7441 24.9989 62.0148 25.0706 62.2535 25.2078C62.4922 25.345 62.6905 25.5428 62.8281 25.7813C63.4368 26.8474 64.1886 27.8253 65.0625 28.6875C67.0032 30.6478 69.4835 31.9859 72.1875 32.5313C72.5457 32.6043 72.867 32.8007 73.0954 33.0862C73.3238 33.3717 73.4449 33.7282 73.4375 34.0938V42.1875C73.4379 44.3817 73.1276 46.5648 72.5156 48.6719C72.2175 49.7417 71.8362 50.7866 71.375 51.7969C71.2188 52.1563 71.0156 52.5625 70.8125 52.9531C70.6094 53.3438 70.3594 53.7969 70.1094 54.2344C69.8594 54.6719 69.6563 54.9531 69.4219 55.2969L68.9062 56.0156C68.8457 56.128 68.7723 56.2328 68.6875 56.3281C68.5 56.5781 68.2969 56.8125 68.1094 57.0469C67.1359 58.2547 66.0359 59.3547 64.8281 60.3281L64.3438 60.7188L64.1719 60.8438C63.5263 61.3396 62.8534 61.7986 62.1562 62.2188C61.9062 62.3906 61.625 62.5313 61.3594 62.6875C61.0938 62.8438 60.4375 63.1875 59.9688 63.4063C59.5 63.625 59.3906 63.6719 59.0625 63.7969C58.1962 64.1611 57.3092 64.4741 56.4062 64.7344L55.0938 65.0781H54.9844C54.4688 65.1875 53.9531 65.2813 53.4219 65.3594C52.9042 65.4395 52.3826 65.4916 51.8594 65.5156C51.7637 65.5604 51.6644 65.597 51.5625 65.625C51.0421 65.6534 50.5204 65.6534 50 65.625ZM48.5469 62.5H48.6406C49.5497 62.5938 50.466 62.5938 51.375 62.5H51.5625C52.0126 62.4772 52.4612 62.4302 52.9063 62.3594C53.4219 62.3594 53.9062 62.2031 54.375 62.0938H54.4688L55.5156 61.8281C56.3119 61.5967 57.0945 61.3203 57.8594 61L58.6094 60.6719L59.7969 60.0625L60.4844 59.6563C61.0817 59.2949 61.6606 58.9038 62.2188 58.4844L62.4062 58.3281C62.5274 58.2484 62.6423 58.1596 62.75 58.0625C63.8229 57.1928 64.8022 56.2135 65.6719 55.1406C65.8489 54.9408 66.0158 54.7322 66.1719 54.5156L66.3281 54.3281C66.5156 54.0781 66.625 53.9063 66.75 53.7188C66.875 53.5313 67.2031 53.0313 67.3906 52.7188C67.6097 52.3661 67.808 52.0009 67.9844 51.625C68.1719 51.2813 68.3438 50.9688 68.4844 50.6406C68.8843 49.7549 69.2186 48.841 69.4844 47.9063C70.0339 46.0497 70.3128 44.1237 70.3125 42.1875V35.2813C67.4869 34.4924 64.9137 32.9852 62.8438 30.9063C62.0009 30.0583 61.247 29.1264 60.5938 28.125H55.1875C54.1526 28.815 52.9885 29.2881 51.7656 29.5156C46.3226 33.6759 39.6633 35.9323 32.8125 35.9375H29.6875V42.1875C29.6881 43.1759 29.7612 44.1629 29.9062 45.1406C29.9844 45.6406 30.0625 46.125 30.1719 46.5938C30.2604 47.0597 30.3805 47.5191 30.5313 47.9688L30.6094 48.25V48.4531C30.6875 48.6563 30.75 48.875 30.8281 49.0781L30.9844 49.4844C32.7336 54.0438 36.06 57.8248 40.3594 60.1406C40.875 60.4063 41.4063 60.6719 41.9219 60.9063L42.625 61.1719C43.1725 61.3873 43.7305 61.575 44.2969 61.7344C44.625 61.8281 44.9688 61.9219 45.3438 62H45.4219C45.8906 62.1094 46.375 62.1875 46.8594 62.2656C47.3438 62.3438 47.7813 62.375 48.2344 62.4063L48.5469 62.5Z" fill="#755F4B"/>
  <path d="M29.0312 50H27.3437C25.0658 49.9959 22.8824 49.0891 21.2716 47.4784C19.6609 45.8676 18.7541 43.6842 18.75 41.4062C18.7541 39.1283 19.6609 36.9449 21.2716 35.3341C22.8824 33.7234 25.0658 32.8166 27.3437 32.8125H28.125C28.5394 32.8125 28.9368 32.9771 29.2299 33.2701C29.5229 33.5632 29.6875 33.9606 29.6875 34.375V42.1875C29.6829 44.1507 29.9672 46.1039 30.5313 47.9844C30.6017 48.2195 30.6158 48.468 30.5724 48.7096C30.529 48.9512 30.4292 49.1791 30.2812 49.375C30.1357 49.5691 29.947 49.7266 29.73 49.835C29.5131 49.9435 29.2738 50 29.0312 50ZM26.5625 35.9375C25.3745 36.0911 24.2732 36.6417 23.4375 37.5C22.9323 38.0094 22.5339 38.6146 22.2656 39.28C21.9972 39.9454 21.8645 40.6576 21.875 41.375C21.8647 42.7782 22.3942 44.1317 23.3539 45.1555C24.3137 46.1792 25.6303 46.7949 27.0312 46.875C26.7166 45.3324 26.5595 43.7618 26.5625 42.1875V35.9375Z" fill="#755F4B"/>
  <path d="M72.6562 50H70.9687C70.7261 50 70.4869 49.9435 70.2699 49.835C70.053 49.7266 69.8643 49.5691 69.7187 49.375C69.5707 49.1791 69.471 48.9512 69.4275 48.7096C69.3841 48.468 69.3982 48.2195 69.4687 47.9844C70.0327 46.1039 70.317 44.1507 70.3125 42.1875V34.375C70.3125 33.9606 70.4771 33.5632 70.7701 33.2701C71.0631 32.9771 71.4606 32.8125 71.875 32.8125H72.6562C74.9341 32.8166 77.1176 33.7234 78.7283 35.3341C80.3391 36.9449 81.2458 39.1283 81.25 41.4062C81.2458 43.6842 80.3391 45.8676 78.7283 47.4784C77.1176 49.0891 74.9341 49.9959 72.6562 50ZM73.4375 35.9375V42.1875C73.4404 43.7618 73.2834 45.3324 72.9687 46.875C74.322 46.8312 75.6074 46.2723 76.5625 45.3125C77.0677 44.8031 77.4661 44.1979 77.7344 43.5325C78.0027 42.8671 78.1355 42.1549 78.125 41.4375C78.1462 40.1075 77.6819 38.8153 76.8191 37.8029C75.9563 36.7906 74.754 36.1274 73.4375 35.9375Z" fill="#755F4B"/>
  <path d="M76.5625 28.125H54.6875C54.3596 28.125 54.0399 28.0218 53.7739 27.8301C53.5079 27.6383 53.3089 27.3677 53.2052 27.0566C53.1015 26.7455 53.0983 26.4097 53.1961 26.0966C53.2939 25.7836 53.4876 25.5093 53.75 25.3125C54.7994 24.5255 55.5746 23.4282 55.9657 22.1761C56.3568 20.924 56.3441 19.5805 55.9293 18.3361C55.5145 17.0916 54.7186 16.0093 53.6544 15.2423C52.5903 14.4753 51.3118 14.0625 50 14.0625C48.6882 14.0625 47.4097 14.4753 46.3456 15.2423C45.2814 16.0093 44.4855 17.0916 44.0707 18.3361C43.6559 19.5805 43.6432 20.924 44.0343 22.1761C44.4254 23.4282 45.2006 24.5255 46.25 25.3125C46.5124 25.5093 46.7061 25.7836 46.8039 26.0966C46.9017 26.4097 46.8985 26.7455 46.7948 27.0566C46.6911 27.3677 46.4922 27.6383 46.2261 27.8301C45.9601 28.0218 45.6404 28.125 45.3125 28.125H23.4375C23.0231 28.125 22.6257 27.9604 22.3326 27.6674C22.0396 27.3744 21.875 26.9769 21.875 26.5625V23.4375C21.875 18.0503 24.0151 12.8837 27.8244 9.07442C31.6337 5.26508 36.8003 3.12502 42.1875 3.12502H57.8125C60.7928 3.12056 63.7375 3.77196 66.4378 5.03301C69.1381 6.29405 71.5278 8.13385 73.4375 10.4219L73.5313 10.5469C76.4994 14.1876 78.1218 18.7402 78.125 23.4375V26.5625C78.125 26.9769 77.9604 27.3744 77.6674 27.6674C77.3743 27.9604 76.9769 28.125 76.5625 28.125ZM58.1094 25H75V23.4375C75.0021 19.447 73.6155 15.58 71.0781 12.5C69.4648 10.5444 67.4388 8.96982 65.1453 7.88927C62.8519 6.80873 60.3478 6.24894 57.8125 6.25002H42.1875C37.6291 6.25002 33.2574 8.06084 30.0341 11.2841C26.8108 14.5074 25 18.8791 25 23.4375V25H41.8906C41.0641 23.5751 40.6275 21.9576 40.625 20.3103C40.6225 18.663 41.054 17.0442 41.8762 15.6167C42.6984 14.1893 43.8822 13.0037 45.3083 12.1793C46.7345 11.355 48.3527 10.9209 50 10.9209C51.6473 10.9209 53.2655 11.355 54.6917 12.1793C56.1178 13.0037 57.3016 14.1893 58.1238 15.6167C58.946 17.0442 59.3775 18.663 59.375 20.3103C59.3725 21.9576 58.9359 23.5751 58.1094 25Z" fill="#755F4B"/>
  <path d="M50 29.6875C47.9702 29.6955 45.994 29.0367 44.375 27.8125C42.8009 26.6319 41.6381 24.986 41.0514 23.1078C40.4647 21.2297 40.4839 19.2145 41.1061 17.3479C41.7283 15.4812 42.9221 13.8576 44.5183 12.7071C46.1146 11.5566 48.0324 10.9375 50 10.9375C51.9676 10.9375 53.8854 11.5566 55.4817 12.7071C57.0779 13.8576 58.2717 15.4812 58.8939 17.3479C59.5161 19.2145 59.5353 21.2297 58.9486 23.1078C58.3619 24.986 57.1991 26.6319 55.625 27.8125C54.3687 28.7613 52.8886 29.3694 51.3281 29.5781C50.889 29.6495 50.4449 29.6861 50 29.6875ZM50 14.0625C48.6882 14.0625 47.4097 14.4752 46.3456 15.2422C45.2814 16.0092 44.4855 17.0916 44.0707 18.3361C43.6559 19.5805 43.6432 20.9239 44.0343 22.176C44.4254 23.4281 45.2006 24.5254 46.25 25.3125C46.9002 25.808 47.643 26.1684 48.4346 26.3723C49.2262 26.5763 50.0507 26.6197 50.8594 26.5C51.9109 26.3664 52.9083 25.9567 53.75 25.3125C54.7994 24.5254 55.5746 23.4281 55.9657 22.176C56.3568 20.9239 56.3441 19.5805 55.9293 18.3361C55.5145 17.0916 54.7186 16.0092 53.6544 15.2422C52.5903 14.4752 51.3118 14.0625 50 14.0625Z" fill="#755F4B"/>
  <path d="M53.125 65.625H46.875C43.5598 65.625 40.3804 64.308 38.0362 61.9638C35.692 59.6196 34.375 56.4402 34.375 53.125V45.3125C34.375 44.8981 34.5396 44.5007 34.8326 44.2076C35.1257 43.9146 35.5231 43.75 35.9375 43.75H64.0625C64.4769 43.75 64.8743 43.9146 65.1674 44.2076C65.4604 44.5007 65.625 44.8981 65.625 45.3125V53.125C65.625 56.4402 64.308 59.6196 61.9638 61.9638C59.6196 64.308 56.4402 65.625 53.125 65.625ZM37.5 46.875V53.125C37.5 55.6114 38.4877 57.996 40.2459 59.7541C42.004 61.5123 44.3886 62.5 46.875 62.5H53.125C55.6114 62.5 57.996 61.5123 59.7541 59.7541C61.5123 57.996 62.5 55.6114 62.5 53.125V46.875H37.5Z" fill="#DAC0A7"/>
  <path d="M35.9375 46.8751C35.7118 46.8751 35.4888 46.8262 35.2838 46.7318C35.0788 46.6374 34.8967 46.4997 34.75 46.3282L25.375 35.3907C25.1056 35.0758 24.9724 34.6667 25.0046 34.2535C25.0369 33.8404 25.2319 33.4569 25.5469 33.1876C25.8618 32.9182 26.2709 32.785 26.684 32.8172C27.0972 32.8495 27.4806 33.0445 27.75 33.3595L37.125 44.297C37.3191 44.5239 37.4442 44.8018 37.4852 45.0977C37.5263 45.3935 37.4817 45.695 37.3568 45.9663C37.2318 46.2376 37.0317 46.4674 36.7802 46.6284C36.5286 46.7895 36.2362 46.8751 35.9375 46.8751Z" fill="#DAC0A7"/>
  <path d="M64.0624 46.8751C63.7637 46.8751 63.4713 46.7895 63.2197 46.6284C62.9682 46.4674 62.7681 46.2376 62.6431 45.9663C62.5182 45.695 62.4736 45.3935 62.5147 45.0977C62.5557 44.8018 62.6808 44.5239 62.8749 44.297L72.2499 33.3595C72.3833 33.2035 72.5461 33.0754 72.729 32.9823C72.9119 32.8893 73.1113 32.8332 73.3159 32.8172C73.5205 32.8013 73.7262 32.8258 73.9213 32.8893C74.1164 32.9529 74.2971 33.0542 74.453 33.1876C74.609 33.321 74.7371 33.4837 74.8302 33.6666C74.9232 33.8495 74.9793 34.049 74.9953 34.2535C75.0112 34.4581 74.9867 34.6638 74.9232 34.859C74.8596 35.0541 74.7583 35.2348 74.6249 35.3907L65.2499 46.3282C65.1032 46.4997 64.9211 46.6374 64.7161 46.7318C64.5111 46.8262 64.2881 46.8751 64.0624 46.8751Z" fill="#DAC0A7"/>
  <path d="M50 96.8755H34.375C34.0222 96.8875 33.6758 96.7798 33.3921 96.5699C33.1083 96.3599 32.9041 96.0601 32.8125 95.7192L31.9062 92.4536C31.8534 92.2398 31.8442 92.0175 31.8791 91.8001C31.914 91.5827 31.9923 91.3745 32.1094 91.1879L35.2344 86.3754L31.8437 84.1098C31.512 83.8918 31.2757 83.5556 31.1828 83.1696C31.09 82.7836 31.1475 82.3768 31.3437 82.0317L37.5937 71.0942C37.7401 70.8389 37.9557 70.6301 38.2155 70.4918C38.4754 70.3536 38.769 70.2916 39.0625 70.3129H43.75C44.1028 70.3009 44.4492 70.4086 44.7329 70.6185C45.0167 70.8285 45.2209 71.1283 45.3125 71.4692L51.5625 94.9067C51.6235 95.1396 51.6299 95.3835 51.5811 95.6193C51.5323 95.8551 51.4297 96.0765 51.2812 96.2661C51.1309 96.4615 50.9365 96.6187 50.7138 96.7246C50.4911 96.8305 50.2465 96.8822 50 96.8755ZM35.5625 93.7504H47.9687L42.5469 73.4379H39.9687L34.8906 82.3286L38.3594 84.6411C38.7044 84.8677 38.9458 85.2217 39.0307 85.6257C39.1156 86.0298 39.0372 86.451 38.8125 86.7973L35.1719 92.313L35.5625 93.7504Z" fill="#755F4B"/>
  <path d="M65.625 96.875H50C49.7614 96.8744 49.5261 96.8192 49.3121 96.7136C49.0981 96.608 48.9112 96.4547 48.7656 96.2656C48.6172 96.076 48.5145 95.8547 48.4658 95.6189C48.417 95.3831 48.4233 95.1392 48.4844 94.9063L53.1719 77.1719C53.1719 77.1719 53.1719 77.1719 53.1719 77.0625L54.7344 71.4688C54.824 71.1358 55.0213 70.8419 55.2954 70.6327C55.5696 70.4236 55.9052 70.311 56.25 70.3125H60.9375C61.2128 70.3114 61.4836 70.3831 61.7223 70.5203C61.961 70.6575 62.1592 70.8553 62.2969 71.0938L68.5469 82.0313C68.7431 82.3764 68.8007 82.7832 68.7078 83.1692C68.6149 83.5552 68.3786 83.8913 68.0469 84.1094L64.6563 86.375L67.7813 91.1875C67.8983 91.374 67.9766 91.5822 68.0115 91.7997C68.0464 92.0171 68.0372 92.2393 67.9844 92.4531L67.1875 95.7188C67.0959 96.0596 66.8917 96.3595 66.6079 96.5694C66.3242 96.7794 65.9778 96.8871 65.625 96.875ZM52.0313 93.75H64.4375L64.8281 92.3125L61.1875 86.7969C60.9629 86.4505 60.8844 86.0293 60.9693 85.6253C61.0542 85.2213 61.2956 84.8673 61.6406 84.6406L65.1094 82.3281L60.0313 73.4375H57.4531L56.25 77.7813C56.25 77.7813 56.25 77.7813 56.25 77.8906L52.0313 93.75Z" fill="#755F4B"/>
</svg>