<svg xmlns="http://www.w3.org/2000/svg" width="84" height="68" viewBox="0 0 84 68" fill="none">
  <path d="M84 67.5H51.7302C48.4457 57.5741 46.8035 47.3173 46.8035 36.7296C46.8035 26.142 49.6774 17.4568 55.4252 10.6741C61.3372 3.89136 69.9589 0.5 81.2903 0.5V16.6296C72.7507 16.6296 68.4809 22.0889 68.4809 33.0074V36.9778H84V67.5ZM37.1965 67.5H4.92669C1.64223 57.5741 0 47.3173 0 36.7296C0 26.142 2.8739 17.4568 8.6217 10.6741C14.5337 3.89136 23.1554 0.5 34.4868 0.5V16.6296C25.9472 16.6296 21.6774 22.0889 21.6774 33.0074V36.9778H37.1965V67.5Z" fill="#DAC0A7"/>
</svg>