<svg xmlns="http://www.w3.org/2000/svg" width="100" height="100" viewBox="0 0 100 100" fill="none">
  <path d="M83.4649 60.8569L65.8567 71.113C64.9739 71.6271 64.0763 71.9901 63.1393 72.2067C63.4864 71.6499 63.7585 71.0202 63.9452 70.3229C64.8452 66.9634 62.8485 63.4558 59.3993 62.3376C59.3323 62.3159 59.2642 62.2987 59.1948 62.2862C54.1341 61.3735 49.1392 59.5677 45.1257 58.1167C43.7313 57.6126 42.4145 57.1364 41.2948 56.7735C36.7872 55.311 32.7116 57.1216 29.3196 59.0853L16.2192 66.67L14.9841 64.4876C14.439 63.5241 13.5485 62.8302 12.477 62.5331C11.4059 62.236 10.285 62.3728 9.32157 62.9181L4.38114 65.7144C3.41747 66.2597 2.72333 67.1499 2.42626 68.2214C2.12919 69.2929 2.2661 70.4136 2.81142 71.3769L17.3362 97.0413C17.8813 98.0046 18.7718 98.6987 19.8433 98.9958C20.2138 99.0985 20.5901 99.1493 20.964 99.1493C21.671 99.1493 22.3684 98.9675 22.9987 98.6108L27.9393 95.8147C28.9028 95.2694 29.5968 94.3792 29.8938 93.3077C30.1909 92.2362 30.054 91.1155 29.5087 90.1522L28.0112 87.5061L30.9975 85.7819L53.5503 91.8249C54.8239 92.1665 56.0743 92.3368 57.2977 92.3368C59.7368 92.3368 62.0685 91.6593 64.2628 90.3083L96.2179 70.6317C99.1308 68.8384 100.055 64.3183 98.1565 61.1487C97.2349 59.6101 93.4522 55.0407 83.4649 60.8569ZM26.8825 92.4729C26.8083 92.7399 26.6372 92.961 26.4001 93.095L21.4595 95.8911C20.9741 96.1663 20.3311 95.9884 20.0556 95.5021L5.53095 69.8378C5.39677 69.6009 5.36395 69.3233 5.43778 69.0562C5.51181 68.7892 5.6831 68.5681 5.9202 68.4341L10.8606 65.638C11.0149 65.5507 11.1864 65.5064 11.361 65.5064C11.4546 65.5064 11.5491 65.519 11.6423 65.545C11.9093 65.619 12.1304 65.7903 12.2645 66.0272L26.7893 91.6917C26.9233 91.9284 26.9565 92.206 26.8825 92.4729ZM94.5794 67.9708L62.6243 87.6474C60.0903 89.2075 57.3095 89.5976 54.3593 88.8065L31.1813 82.596C30.7815 82.4892 30.3548 82.545 29.9958 82.7521L26.4722 84.7864L17.7585 69.3899L30.8854 61.7897C33.8218 60.0894 36.9989 58.6651 40.3306 59.746C41.4009 60.0931 42.6347 60.5392 44.063 61.0556C48.1579 62.536 53.247 64.3759 58.5272 65.3411C60.3673 65.9841 61.3962 67.7616 60.9266 69.5142C60.3087 71.82 58.3868 72.1063 56.8595 71.931C54.2657 71.3976 51.8009 70.6942 49.1931 69.9495C47.9565 69.5962 46.6776 69.2312 45.3634 68.879C44.5306 68.6562 43.6731 69.1505 43.4497 69.9839C43.2263 70.8173 43.7212 71.6741 44.5546 71.8976C45.8442 72.2431 47.1104 72.6048 48.3349 72.9544C51.0225 73.722 53.5612 74.447 56.295 75.0058C56.3054 75.0079 56.3157 75.0087 56.3263 75.0104C56.3368 75.0122 56.3466 75.0153 56.3571 75.0171L58.5468 75.3731C61.821 75.8972 64.7272 75.387 67.4294 73.8132L85.0378 63.5571C90.1061 60.605 94.0085 60.3048 95.4755 62.7542C96.4864 64.4425 96.0343 67.0751 94.5794 67.9708ZM12.294 70.5946C12.435 71.5585 11.7679 72.4542 10.8038 72.5952C9.83993 72.736 8.94423 72.0688 8.80321 71.105C8.66239 70.1411 9.32938 69.2454 10.2934 69.1044C11.2575 68.9634 12.1532 69.6306 12.294 70.5946ZM99.1493 12.8146V9.84014C99.1493 6.74463 96.6307 4.22607 93.5354 4.22607H68.0708C64.9753 4.22607 62.4569 6.74463 62.4569 9.84014V12.8146C62.4569 14.4058 63.1235 15.8435 64.1907 16.8661C63.1235 17.8886 62.4569 19.3263 62.4569 20.9175V23.8919C62.4569 24.1145 62.471 24.3368 62.4976 24.5575C54.3216 26.405 48.1972 33.727 48.1972 42.4534C48.1972 52.5696 56.4274 60.7997 66.5436 60.7997C73.3065 60.7997 79.2257 57.121 82.4071 51.6603H93.5354C96.6309 51.6603 99.1493 49.1419 99.1493 46.0464V43.0718C99.1493 41.4806 98.4827 40.0429 97.4155 39.0204C98.4827 37.9979 99.1493 36.5603 99.1493 34.969V31.9946C99.1493 30.4034 98.4827 28.9659 97.4155 27.9433C98.4827 26.9208 99.1493 25.4831 99.1493 23.8919V20.9175C99.1493 19.3263 98.4827 17.8888 97.4155 16.8661C98.4827 15.8435 99.1493 14.4058 99.1493 12.8146ZM66.5436 57.6745C58.1505 57.6745 51.3222 50.8464 51.3222 42.4532C51.3222 34.0601 58.1505 27.2319 66.5436 27.2319C74.9368 27.2319 81.7649 34.0601 81.7649 42.4532C81.7649 50.8464 74.9366 57.6745 66.5436 57.6745ZM96.0243 43.0718V46.0462C96.0243 47.4185 94.9077 48.5351 93.5354 48.5351H83.8522C84.5233 46.6308 84.8897 44.5843 84.8897 42.4532C84.8897 41.822 84.8577 41.1979 84.795 40.5827H93.5352C94.9077 40.5827 96.0243 41.6993 96.0243 43.0718ZM96.0243 31.9944V34.9688C96.0243 36.3411 94.9077 37.4577 93.5354 37.4577H84.1983C83.3356 34.4128 81.7046 31.6876 79.529 29.5056H93.5354C94.9077 29.5058 96.0243 30.6222 96.0243 31.9944ZM96.0243 20.9173V23.8917C96.0243 25.2642 94.9077 26.3806 93.5354 26.3806H75.3817C72.7587 24.9323 69.746 24.1067 66.5436 24.1067C66.2261 24.1067 65.9101 24.1149 65.5964 24.131C65.5888 24.0519 65.5819 23.9724 65.5819 23.8917V20.9173C65.5819 19.545 66.6985 18.4284 68.0708 18.4284H93.5354C94.9077 18.4284 96.0243 19.545 96.0243 20.9173ZM68.0708 15.3034C66.6985 15.3034 65.5819 14.1868 65.5819 12.8144V9.84014C65.5819 8.46768 66.6985 7.35107 68.0708 7.35107H93.5354C94.9077 7.35107 96.0243 8.46768 96.0243 9.84014V12.8146C96.0243 14.187 94.9077 15.3036 93.5354 15.3036L68.0708 15.3034ZM73.4495 46.1937C73.6235 47.6271 73.237 48.9376 72.3319 49.9839C71.3768 51.088 69.8517 51.855 68.1059 52.1409V53.0739C68.1059 53.9368 67.4063 54.6364 66.5434 54.6364C65.6806 54.6364 64.981 53.9368 64.981 53.0739V52.1159C62.3136 51.6073 60.2624 49.8304 59.6431 47.3458C59.4345 46.5085 59.944 45.6606 60.7813 45.4519C61.6192 45.2435 62.4665 45.7528 62.6753 46.5901C63.1591 48.5306 65.1597 49.1716 66.7251 49.138C68.0938 49.1054 69.3667 48.6349 69.9681 47.9396C70.2942 47.5624 70.4145 47.1274 70.347 46.5702C70.2331 45.6335 69.6708 44.487 66.3054 43.9347C61.4001 43.129 60.2548 40.5788 60.1579 38.5812C60.0235 35.8175 61.9395 33.5056 64.9251 32.8282C64.9436 32.8241 64.962 32.82 64.9806 32.8159V31.8323C64.9806 30.9694 65.6802 30.2698 66.5431 30.2698C67.4059 30.2698 68.1056 30.9694 68.1056 31.8323V32.8021C70.0688 33.2075 71.9509 34.4296 72.9249 36.7495C73.2591 37.5452 72.8849 38.461 72.0893 38.795C71.294 39.129 70.378 38.7552 70.0436 37.9593C69.2257 36.0116 67.2311 35.5099 65.6163 35.8757C64.4395 36.1427 63.2075 36.9538 63.279 38.4294C63.3036 38.937 63.3692 40.2854 66.8114 40.8507C70.8665 41.5165 73.0997 43.314 73.4495 46.1937ZM33.61 17.1169H36.6194V36.4413C36.6194 37.3042 37.319 38.0038 38.1819 38.0038H44.5087C45.3716 38.0038 46.0712 37.3042 46.0712 36.4413V17.1169H49.0806C49.6554 17.1169 50.1839 16.8011 50.4565 16.2948C50.729 15.7886 50.7013 15.1735 50.3847 14.6937L42.6495 2.97471C42.3602 2.53662 41.8702 2.27295 41.3454 2.27295C40.8206 2.27295 40.3306 2.53662 40.0413 2.97471L32.3061 14.6937C31.9895 15.1735 31.9618 15.7886 32.2343 16.2948C32.5067 16.8013 33.0352 17.1169 33.61 17.1169ZM41.3454 6.67178L46.177 13.9919H44.5087C43.6458 13.9919 42.9462 14.6915 42.9462 15.5544V34.8788H39.7444V15.5544C39.7444 14.6915 39.0448 13.9919 38.1819 13.9919H36.5136L41.3454 6.67178Z" fill="#755F4B"/>
</svg>