<svg width="16" height="22" viewBox="0 0 16 22" fill="none" xmlns="http://www.w3.org/2000/svg">
<path d="M14 9.66663C14 14.3333 8 18.3333 8 18.3333C8 18.3333 2 14.3333 2 9.66663C2 8.07533 2.63214 6.5492 3.75736 5.42399C4.88258 4.29877 6.4087 3.66663 8 3.66663C9.5913 3.66663 11.1174 4.29877 12.2426 5.42399C13.3679 6.5492 14 8.07533 14 9.66663Z" stroke="#010C0D" stroke-width="1.5" stroke-linecap="round" stroke-linejoin="round"/>
<path d="M8 11.6666C9.10457 11.6666 10 10.7712 10 9.66663C10 8.56206 9.10457 7.66663 8 7.66663C6.89543 7.66663 6 8.56206 6 9.66663C6 10.7712 6.89543 11.6666 8 11.6666Z" stroke="#010C0D" stroke-width="1.5" stroke-linecap="round" stroke-linejoin="round"/>
</svg>
